# xmcd
#
# Track frame offsets:
#	150
#	23568
#	45912
#	67882
#	94632
#	120399
#	139222
#	161908
#	182884
#	206401
#	226793
#	243869
#	264659
#
# Disc length: 3720 seconds
#
# Revision: 0
# Processed by: cddbd v1.5.2PL0 Copyright (c) Steve Scherf et al.
# Submitted via: dBpowerAMP V4.0
#
DISCID=a10e860d
DTITLE=Neþet Abalýoðlu - Bana Resimleri Deðil Kendisi Lazým
DYEAR=1900
DGENRE=
TTITLE0=Kendisi Lazým
TTITLE1=Etme Felek
TTITLE2=Halep Kýnasý
TTITLE3=Gönül Daðlarý
TTITLE4=Saðým Yalan Solum Yalan
TTITLE5=Ýp Attým Ucu Kaldý
TTITLE6=Yazýn Yaðar Kar Baþýma
TTITLE7=Aha Geldim Gidiyorum
TTITLE8=Elinende Karagözlüm
TTITLE9=Can Yoldaþým
TTITLE10=Yar Bana Yar Olunca
TTITLE11=Tokat Yaylasý
TTITLE12=Gesi Baða Giderken
EXTD=
EXTT0=
EXTT1=
EXTT2=
EXTT3=
EXTT4=
EXTT5=
EXTT6=
EXTT7=
EXTT8=
EXTT9=
EXTT10=
EXTT11=
EXTT12=
PLAYORDER=
